<svg width="32" height="32" viewBox="0 0 32 32" fill="none" xmlns="http://www.w3.org/2000/svg">
<path d="M26.6758 4H5.32421C4.59287 4 4 4.59287 4 5.32421V26.6758C4 27.4071 4.59287 28 5.32421 28H26.6758C27.4071 28 28 27.4071 28 26.6758V5.32421C28 4.59287 27.4071 4 26.6758 4Z" fill="#3D5A98"/>
<path d="M20.5578 27.998V18.7042H23.6767L24.1431 15.0824H20.5578V12.7706C20.5578 11.7222 20.8498 11.0064 22.3525 11.0064H24.2709V7.76177C23.3419 7.66513 22.4084 7.6191 21.4744 7.62387C18.7124 7.62387 16.8103 9.30701 16.8103 12.4117V15.0824H13.6914V18.7042H16.8103V27.998H20.5578Z" fill="white"/>
</svg>
