<svg width="32" height="32" viewBox="0 0 32 32" fill="none" xmlns="http://www.w3.org/2000/svg">
<path d="M26.2293 4.00009H5.77048C5.30628 3.99537 4.85917 4.17498 4.52725 4.49953C4.19532 4.82407 4.00571 5.26704 4 5.73123V26.2727C4.00674 26.7362 4.19681 27.1782 4.52862 27.5019C4.86043 27.8256 5.30695 28.0046 5.77048 27.9999H26.2293C26.6936 28.0036 27.1404 27.8234 27.4721 27.4986C27.8039 27.1739 27.9936 26.731 27.9998 26.2668V5.72532C27.9915 5.2625 27.8009 4.82165 27.4694 4.49859C27.1379 4.17553 26.6922 3.99639 26.2293 4.00009Z" fill="#0076B2"/>
<path d="M7.55281 12.9961H11.1154V24.459H7.55281V12.9961ZM9.33509 7.29126C9.7437 7.29126 10.1431 7.41245 10.4829 7.63951C10.8226 7.86656 11.0873 8.18927 11.2436 8.56682C11.3999 8.94436 11.4407 9.35978 11.3608 9.76051C11.281 10.1612 11.084 10.5293 10.795 10.8181C10.5059 11.1069 10.1377 11.3034 9.73685 11.3829C9.33604 11.4624 8.92067 11.4212 8.54327 11.2646C8.16587 11.1079 7.84341 10.8429 7.61668 10.5029C7.38996 10.163 7.26914 9.76346 7.26953 9.35485C7.27005 8.80737 7.4879 8.28249 7.87521 7.89555C8.26253 7.50861 8.78761 7.29126 9.33509 7.29126ZM13.3501 12.9961H16.7652V14.5699H16.8124C17.2885 13.6689 18.4491 12.7188 20.1822 12.7188C23.7901 12.7109 24.4589 15.0853 24.4589 18.164V24.459H20.8963V18.882C20.8963 17.5541 20.8727 15.8446 19.0452 15.8446C17.2177 15.8446 16.9068 17.2925 16.9068 18.7954V24.459H13.3501V12.9961Z" fill="white"/>
</svg>

